Coordinates
version=1
nRows=7
nColumns=42
inDegrees=yes

Units are S.I. units (second, meters, Newtons, ...)
If the header above contains a line with 'inDegrees', this indicates whether rotational values are in degrees (yes) or radians (no).

endheader
time	pelvis_tilt	pelvis_list	pelvis_rotation	pelvis_tx	pelvis_ty	pelvis_tz	hip_flexion_r	hip_adduction_r	hip_rotation_r	knee_angle_r	knee_adduction_r	knee_angle_r_beta	ankle_angle_r	subtalar_angle_r	mtp_angle_r	hip_flexion_l	hip_adduction_l	hip_rotation_l	knee_angle_l	knee_adduction_l	knee_angle_l_beta	ankle_angle_l	subtalar_angle_l	mtp_angle_l	lumbar_extension	lumbar_bending	lumbar_rotation	arm_flex_r	arm_add_r	arm_rot_r	elbow_flex_r	pro_sup_r	wrist_flex_r	wrist_dev_r	arm_flex_l	arm_add_l	arm_rot_l	elbow_flex_l	pro_sup_l	wrist_flex_l	wrist_dev_l
      1.43000000	     -2.55575903	      1.74703202	     -3.55821042	      0.26835063	      0.85851163	     -0.37157168	     25.38710736	     -1.48605661	     -0.48355612	     63.32012802	      0.62292491	      1.10514472	      1.58655946	    -18.00674899	     -7.54186788	      3.24962147	     -0.47280009	     -6.36837995	      8.06020625	     11.78328940	      0.14067714	     11.96751007	     -1.41339947	     -7.54186788	     -5.93424675	     -2.99541095	      3.04521675	      3.74277438	    -16.86795105	      7.65573986	     33.75844812	     90.00000001	      0.00000000	      0.00000000	      0.30710549	    -12.12650388	    -19.33008756	     34.49687735	     90.00000001	      0.00000000	      0.00000000
      1.44000000	     -2.62214141	      1.54257281	     -3.30476478	      0.27958013	      0.85819895	     -0.37231684	     26.61242504	     -1.08395198	     -0.31828791	     61.56462994	      0.80473020	      1.07450550	      2.16037937	    -17.85676078	     -7.54118764	      2.44182558	     -0.48966275	     -6.35656229	      7.96529115	     11.58978154	      0.13902056	     12.43320571	     -1.03881922	     -7.54118764	     -5.92958237	     -2.64645705	      2.48423105	      3.16068269	    -16.89551312	      7.64652799	     33.59666322	     90.00000001	      0.00000000	      0.00000000	      0.64444216	    -12.04599349	    -19.19780273	     34.76590542	     90.00000001	      0.00000000	      0.00000000
      1.45000000	     -2.62838097	      1.17702340	     -2.99690781	      0.29081719	      0.85778626	     -0.37298600	     27.60634909	     -0.59018894	     -0.02198200	     59.49946714	      1.27531295	      1.03846160	      2.72301106	    -17.97315447	     -7.54017475	      1.50850820	     -0.79982954	     -5.94157341	      7.71380781	     11.69038186	      0.13463134	     13.32448766	     -0.48496362	     -7.54017475	     -6.02577379	     -2.12403309	      1.90668751	      2.68861388	    -16.98143715	      7.60425972	     33.41618519	     90.00000001	      0.00000000	      0.00000000	      1.06510869	    -11.95185484	    -18.98164130	     35.09482662	     90.00000001	      0.00000000	      0.00000000
      1.46000000	     -2.73757237	      1.26766781	     -2.72807785	      0.30198827	      0.85698037	     -0.37389541	     28.81696466	     -0.70534930	     -0.15695787	     57.46359387	      1.35370054	      1.00292891	      2.87421341	    -17.43103175	     -7.53969653	      0.90011072	     -0.52327731	     -6.15685277	      7.88278504	     11.54081582	      0.13758055	     13.52413969	     -0.33886606	     -7.53969653	     -5.98043514	     -2.12236387	      1.28455483	      2.20200255	    -17.05271446	      7.57210696	     33.36926860	     90.00000001	      0.00000000	      0.00000000	      1.50421309	    -11.91494800	    -18.86409230	     35.44138768	     90.00000001	      0.00000000	      0.00000000
      1.47000000	     -2.69386458	      0.67860397	     -2.36520229	      0.31349158	      0.85643088	     -0.37442406	     29.40954366	     -0.06940070	     -0.14105448	     54.70749475	      1.76473107	      0.95482591	      2.99514471	    -17.94421403	     -7.53862136	     -0.06549274	     -1.03735273	     -5.33288925	      7.67357002	     11.51402488	      0.13392906	     14.69727800	      0.04850211	     -7.53862136	     -6.10285175	     -1.34914962	      0.73931974	      1.58504262	    -17.07297456	      7.45349708	     33.18162746	     90.00000001	      0.00000000	      0.00000000	      1.71247775	    -11.81684188	    -18.56699109	     35.87115143	     90.00000001	      0.00000000	      0.00000000
      1.48000000	     -2.74722454	      0.48709872	     -2.01134057	      0.32489280	      0.85551287	     -0.37517047	     30.17981560	      0.01965192	     -0.48078973	     52.00637858	      1.91465206	      0.90768254	      2.96053589	    -17.86946874	     -7.53782703	     -0.75449572	     -1.07604042	     -5.04855298	      7.80216098	     11.35054355	      0.13617340	     15.25274247	      0.21064486	     -7.53782703	     -6.12148563	     -1.03309658	      0.15029159	      1.00516569	    -17.10384222	      7.34526315	     33.09231573	     90.00000001	      0.00000000	      0.00000000	      2.00370307	    -11.73376715	    -18.33434919	     36.32384240	     90.00000001	      0.00000000	      0.00000000
      1.49000000	     -2.74409500	      0.25933295	     -1.64031979	      0.33643890	      0.85451360	     -0.37578473	     30.75938724	      0.11214122	     -0.98751051	     49.09577746	      2.00261617	      0.85688297	      2.54456192	    -17.90038895	     -7.53529600	     -1.59126822	     -1.22213943	     -4.54846017	      7.75778463	     11.34768441	      0.13539888	     15.98012010	      0.17499659	     -7.53529600	     -6.19358129	     -0.69703209	     -0.47394503	      0.43727971	    -16.99452728	      6.84769724	     32.99825542	     90.00000001	      0.00000000	      0.00000000	      2.02757580	    -11.79299543	    -17.64023785	     37.23270704	     90.00000001	      0.00000000	      0.00000000
